<svg width="32" height="32" viewBox="0 0 32 32" fill="none" xmlns="http://www.w3.org/2000/svg">
<path d="M10.6198 8.26917C10.372 8.2331 10.1193 8.28298 9.9038 8.4105H9.88513C9.38513 8.70384 8.93447 9.07317 8.55047 9.50784C8.23047 9.87717 8.05713 10.2505 8.0118 10.6105C7.98513 10.8238 8.0038 11.0398 8.06647 11.2438L8.09047 11.2572C8.45047 12.3145 8.9198 13.3318 9.49313 14.2892C10.2324 15.6338 11.1421 16.8774 12.1998 17.9892L12.2318 18.0345L12.2825 18.0718L12.3131 18.1078L12.3505 18.1398C13.4661 19.2007 14.7126 20.1147 16.0598 20.8598C17.5998 21.6985 18.5345 22.0945 19.0958 22.2598V22.2678C19.2598 22.3185 19.4091 22.3412 19.5598 22.3412C20.0379 22.3058 20.4903 22.1115 20.8451 21.7892C21.2785 21.4052 21.6451 20.9532 21.9305 20.4505V20.4412C22.1985 19.9345 22.1078 19.4572 21.7211 19.1332C20.9445 18.4546 20.1046 17.8518 19.2131 17.3332C18.6158 17.0092 18.0091 17.2052 17.7638 17.5332L17.2398 18.1945C16.9705 18.5225 16.4825 18.4772 16.4825 18.4772L16.4691 18.4852C12.8278 17.5558 11.8558 13.8692 11.8558 13.8692C11.8558 13.8692 11.8105 13.3678 12.1478 13.1118L12.8038 12.5838C13.1185 12.3278 13.3371 11.7225 12.9998 11.1252C12.4846 10.2329 11.8831 9.39327 11.2038 8.6185C11.0556 8.43616 10.8479 8.31198 10.6171 8.26784L10.6198 8.26917ZM16.7731 6.6665C16.5963 6.6665 16.4268 6.73674 16.3017 6.86177C16.1767 6.98679 16.1065 7.15636 16.1065 7.33317C16.1065 7.50998 16.1767 7.67955 16.3017 7.80458C16.4268 7.9296 16.5963 7.99984 16.7731 7.99984C18.4585 7.99984 19.8585 8.5505 20.9665 9.6065C21.5358 10.1838 21.9798 10.8678 22.2705 11.6172C22.5625 12.3678 22.6958 13.1692 22.6611 13.9718C22.6537 14.1486 22.7168 14.3212 22.8366 14.4514C22.9564 14.5817 23.123 14.6591 23.2998 14.6665C23.4766 14.6739 23.6491 14.6108 23.7794 14.491C23.9097 14.3713 23.987 14.2046 23.9945 14.0278C24.0358 13.0405 23.8719 12.0553 23.5131 11.1345C23.1528 10.2094 22.6064 9.368 21.9078 8.6625L21.8945 8.64917C20.5198 7.33584 18.7811 6.6665 16.7731 6.6665Z" fill="black"/>
<path d="M16.7262 8.85876C16.5494 8.85876 16.3799 8.92899 16.2548 9.05402C16.1298 9.17904 16.0596 9.34861 16.0596 9.52542C16.0596 9.70223 16.1298 9.8718 16.2548 9.99683C16.3799 10.1219 16.5494 10.1921 16.7262 10.1921H16.7489C17.9649 10.2788 18.8502 10.6841 19.4702 11.3494C20.1062 12.0348 20.4356 12.8868 20.4102 13.9401C20.4062 14.1169 20.4725 14.2881 20.5947 14.416C20.7168 14.5439 20.8848 14.618 21.0616 14.6221C21.2384 14.6262 21.4096 14.5598 21.5375 14.4377C21.6654 14.3155 21.7395 14.1476 21.7436 13.9708C21.7756 12.5881 21.3302 11.3948 20.4476 10.4428V10.4401C19.5449 9.47209 18.3062 8.96009 16.8156 8.86009L16.7929 8.85742L16.7262 8.85876Z" fill="black"/>
<path d="M16.7008 11.0919C16.6116 11.0841 16.5217 11.0942 16.4365 11.1219C16.3514 11.1495 16.2726 11.194 16.205 11.2528C16.1374 11.3115 16.0823 11.3833 16.043 11.4638C16.0038 11.5443 15.9811 11.6319 15.9765 11.7213C15.9718 11.8108 15.9852 11.9002 16.0159 11.9844C16.0466 12.0685 16.0939 12.1456 16.1551 12.2111C16.2162 12.2765 16.2899 12.329 16.3718 12.3653C16.4536 12.4017 16.542 12.4212 16.6315 12.4226C17.1888 12.4519 17.5448 12.6199 17.7688 12.8453C17.9942 13.0719 18.1622 13.4359 18.1928 14.0053C18.1945 14.0947 18.2142 14.183 18.2506 14.2647C18.2871 14.3464 18.3397 14.4199 18.4052 14.4809C18.4707 14.5418 18.5478 14.589 18.6319 14.6195C18.716 14.6501 18.8054 14.6633 18.8948 14.6586C18.9841 14.6539 19.0716 14.6312 19.152 14.5919C19.2324 14.5526 19.3041 14.4976 19.3627 14.43C19.4214 14.3624 19.4659 14.2838 19.4935 14.1987C19.5211 14.1135 19.5313 14.0237 19.5235 13.9346C19.4808 13.1346 19.2302 12.4279 18.7168 11.9079C18.2008 11.3879 17.4982 11.1346 16.7008 11.0919Z" fill="black"/>
<path fill-rule="evenodd" clip-rule="evenodd" d="M9.42241 3.17858C13.6652 2.23019 18.065 2.23019 22.3077 3.17858L22.7597 3.27858C24 3.55585 25.1391 4.17155 26.0505 5.05728C26.9619 5.943 27.6099 7.06407 27.9224 8.29592C28.9994 12.5398 28.9994 16.9854 27.9224 21.2292C27.6099 22.4611 26.9619 23.5822 26.0505 24.4679C25.1391 25.3536 24 25.9693 22.7597 26.2466L22.3064 26.3466C19.6491 26.9408 16.9224 27.1647 14.2037 27.0119L10.6664 30.1772C10.5331 30.2966 10.3701 30.3781 10.1945 30.413C10.019 30.4479 9.83725 30.4351 9.66834 30.3759C9.49943 30.3166 9.34952 30.2131 9.23426 30.0761C9.119 29.9392 9.04262 29.7738 9.01308 29.5972L8.42775 26.1012C7.30532 25.752 6.29123 25.1207 5.48237 24.2678C4.67352 23.4148 4.09694 22.3686 3.80775 21.2292C2.73075 16.9854 2.73075 12.5398 3.80775 8.29592C4.12031 7.06407 4.76828 5.943 5.67966 5.05728C6.59104 4.17155 7.73015 3.55585 8.97041 3.27858L9.42241 3.17858ZM21.8717 5.12925C17.9161 4.24499 13.814 4.24499 9.85841 5.12925L9.40508 5.23058C8.52604 5.42746 7.71877 5.86412 7.07291 6.49209C6.42706 7.12006 5.96789 7.91475 5.74641 8.78792C4.75137 12.7089 4.75137 16.8163 5.74641 20.7372C5.968 21.6106 6.42736 22.4054 7.07347 23.0334C7.71958 23.6614 8.52713 24.0979 9.40641 24.2946L9.52641 24.3212C9.72054 24.3647 9.8973 24.465 10.0341 24.6094C10.1709 24.7538 10.2615 24.9357 10.2944 25.1319L10.6864 27.4759L13.1824 25.2426C13.2821 25.1531 13.3987 25.0846 13.5254 25.0411C13.652 24.9976 13.7861 24.9799 13.9197 24.9892C16.5852 25.1783 19.2639 24.9785 21.8717 24.3959L22.3237 24.2946C23.203 24.0979 24.0106 23.6614 24.6567 23.0334C25.3028 22.4054 25.7622 21.6106 25.9837 20.7372C26.9784 16.8172 26.9784 12.7092 25.9837 8.78792C25.7622 7.91458 25.3028 7.11977 24.6567 6.49179C24.0106 5.86381 23.203 5.42724 22.3237 5.23058L21.8717 5.12925Z" fill="black"/>
</svg>
